<svg xmlns="http://www.w3.org/2000/svg" version="1.1" xmlns:xlink="http://www.w3.org/1999/xlink" xmlns:svgjs="http://svgjs.dev/svgjs" width="1000" height="343" viewBox="0 0 1000 343"><g transform="matrix(1,0,0,1,-0.6060606060606233,-0.2759429157968043)"><svg viewBox="0 0 396 136" data-background-color="#ffffff" preserveAspectRatio="xMidYMid meet" height="343" width="1000" xmlns="http://www.w3.org/2000/svg" xmlns:xlink="http://www.w3.org/1999/xlink"><defs></defs><g id="tight-bounds" transform="matrix(1,0,0,1,0.2400000000000091,0.10941176836257682)"><svg viewBox="0 0 395.52 135.78117646327485" height="135.78117646327485" width="395.52"><g><svg viewBox="0 0 620.653013519207 213.06886213368415" height="135.78117646327485" width="395.52"><g transform="matrix(1,0,0,1,0,60.1605735227121)"><svg viewBox="0 0 395.52 92.74771508825995" height="92.74771508825995" width="395.52"><g><svg viewBox="0 0 395.52 92.74771508825995" height="92.74771508825995" width="395.52"><g><svg viewBox="0 0 395.52 51.10282868873941" height="51.10282868873941" width="395.52"><g transform="matrix(1,0,0,1,0,0)"><svg width="395.52" viewBox="2.0999999046325684 -35.45000076293945 279.4499816894531 36.11000061035156" height="51.10282868873941" data-palette-color="#ffffff"><path d="M21.68-20L21.68-20Q22.02-20 22.58-20.06 23.14-20.12 23.67-20.42 24.19-20.73 24.57-21.37 24.95-22.02 24.95-23.19L24.95-23.19Q24.95-23.39 25.15-23.39L25.15-23.39 26.1-23.39Q26.29-23.39 26.29-23.19L26.29-23.19 26.29-13.38Q26.29-13.26 26.22-13.22 26.15-13.18 26.1-13.18L26.1-13.18 25.15-13.18Q25.02-13.18 24.99-13.26 24.95-13.33 24.95-13.38L24.95-13.38Q24.95-14.7 24.57-15.42 24.19-16.14 23.68-16.48 23.17-16.82 22.62-16.88 22.07-16.94 21.73-16.94L21.73-16.94 13.57-16.94Q13.28-16.94 13.13-16.76 12.99-16.58 12.99-16.28L12.99-16.28 12.99-4.59Q12.99-3.93 13.24-3.48 13.5-3.03 13.95-2.7 14.4-2.37 15.01-2.12 15.63-1.88 16.36-1.66L16.36-1.66Q16.72-1.54 17.14-1.44 17.55-1.34 17.82-1.34L17.82-1.34Q17.97-1.34 17.99-1.26 18.02-1.17 18.02-1.15L18.02-1.15 18.02-0.2Q18.02-0.15 17.98-0.07 17.94 0 17.82 0L17.82 0 2.29 0Q2.17 0 2.14-0.07 2.1-0.15 2.1-0.2L2.1-0.2 2.1-1.15Q2.1-1.2 2.12-1.27 2.15-1.34 2.29-1.34L2.29-1.34Q2.56-1.34 2.99-1.45 3.42-1.56 3.64-1.66L3.64-1.66Q4.69-2.12 5.36-2.89 6.03-3.66 6.03-4.76L6.03-4.76 6.03-30.76Q6.03-31.69 5.52-32.23 5-32.76 4.36-33.03 3.71-33.3 3.14-33.37 2.56-33.45 2.42-33.45L2.42-33.45 2.32-33.45Q2.2-33.45 2.16-33.52 2.12-33.59 2.12-33.64L2.12-33.64 2.12-34.23Q2.12-34.28 2.16-34.35 2.2-34.42 2.32-34.42L2.32-34.42 26.44-34.42Q26.73-34.38 26.88-34.29 27.03-34.2 27.03-33.86L27.03-33.86 27.03-27.22Q27.03-26.93 26.86-26.86 26.68-26.78 26.46-26.78L26.46-26.78 25.98-26.78Q25.93-26.81 25.84-27.21 25.76-27.61 25.61-28.16 25.46-28.71 25.26-29.26 25.05-29.81 24.78-30.13L24.78-30.13Q24.44-30.49 24.12-30.74 23.8-30.98 23.41-31.13 23.02-31.27 22.51-31.32 22-31.37 21.26-31.37L21.26-31.37 13.48-31.37Q12.99-31.37 12.99-30.88L12.99-30.88 12.99-20.56Q12.99-20 13.57-20L13.57-20 21.68-20ZM42.7-4.64L42.7-4.64Q42.7-3.81 42.95-3.25 43.21-2.69 43.69-2.34 44.16-2 44.86-1.86 45.55-1.71 46.41-1.71L46.41-1.71Q46.6-1.71 46.6-1.51L46.6-1.51 46.6-0.2Q46.6-0.12 46.58-0.06 46.56 0 46.41 0L46.41 0 31.98 0Q31.86 0 31.82-0.07 31.78-0.15 31.78-0.2L31.78-0.2 31.78-1.51Q31.78-1.56 31.82-1.64 31.86-1.71 31.98-1.71L31.98-1.71Q32.83-1.71 33.53-1.82 34.23-1.93 34.71-2.29 35.2-2.66 35.47-3.34 35.74-4.03 35.74-5.2L35.74-5.2 35.74-29.79Q35.74-30.62 35.48-31.18 35.23-31.74 34.75-32.08 34.27-32.42 33.58-32.57 32.88-32.71 32.03-32.71L32.03-32.71Q31.83-32.71 31.83-32.91L31.83-32.91 31.83-34.23Q31.83-34.42 32.03-34.42L32.03-34.42 46.46-34.42Q46.58-34.42 46.62-34.35 46.65-34.28 46.65-34.23L46.65-34.23 46.65-32.91Q46.65-32.86 46.62-32.79 46.58-32.71 46.46-32.71L46.46-32.71Q45.6-32.71 44.91-32.6 44.21-32.5 43.72-32.13 43.23-31.76 42.97-31.08 42.7-30.4 42.7-29.22L42.7-29.22 42.7-4.64ZM50.51 0L50.51 0Q50.46 0 50.39-0.06 50.31-0.12 50.31-0.2L50.31-0.2 50.31-1.27Q50.31-1.46 50.51-1.46L50.51-1.46Q50.78-1.46 51.12-1.46 51.46-1.46 51.79-1.49 52.12-1.51 52.39-1.54 52.66-1.56 52.8-1.64L52.8-1.64Q53.41-1.93 53.8-2.42 54.19-2.91 54.4-3.54 54.61-4.17 54.68-4.93 54.76-5.69 54.76-6.54L54.76-6.54 54.76-30.93Q54.76-31.59 54.23-31.99 53.71-32.4 53.01-32.6 52.31-32.81 51.59-32.89 50.87-32.96 50.51-32.96L50.51-32.96Q50.39-32.96 50.35-33.03 50.31-33.11 50.31-33.15L50.31-33.15 50.31-34.23Q50.31-34.28 50.35-34.35 50.39-34.42 50.51-34.42L50.51-34.42 61.57-34.42 82.61-11.13Q82.73-11.01 82.78-10.95 82.83-10.89 82.91-10.89L82.91-10.89Q83-10.89 83.03-10.96 83.05-11.04 83.05-11.11L83.05-11.11 83.05-25.61Q83.05-28.03 82.88-29.48 82.71-30.93 82.25-31.7 81.78-32.47 81-32.71 80.22-32.96 79-32.96L79-32.96 77.75-32.96Q77.63-32.96 77.6-33.03 77.56-33.11 77.56-33.15L77.56-33.15 77.56-34.23Q77.56-34.28 77.6-34.35 77.63-34.42 77.75-34.42L77.75-34.42 91.18-34.42Q91.33-34.42 91.35-34.35 91.38-34.28 91.38-34.23L91.38-34.23 91.38-33.15Q91.38-33.11 91.34-33.03 91.3-32.96 91.18-32.96L91.18-32.96Q90.69-32.96 89.92-32.76 89.16-32.57 88.42-32.2 87.69-31.84 87.17-31.3 86.64-30.76 86.64-30.08L86.64-30.08 86.64-1.2Q86.64-0.78 86.45-0.5 86.25-0.22 85.94-0.05 85.64 0.12 85.29 0.21 84.93 0.29 84.64 0.29L84.64 0.29Q84.15 0.29 83.5 0.09 82.86-0.12 82.22-0.83L82.22-0.83 59.17-26.39Q59-26.56 58.93-26.6 58.86-26.64 58.74-26.64L58.74-26.64Q58.61-26.64 58.61-26.39L58.61-26.39 58.61-4.59Q58.61-3.91 58.94-3.41 59.27-2.91 59.79-2.55 60.3-2.2 60.92-1.99 61.54-1.78 62.14-1.66 62.74-1.54 63.22-1.5 63.69-1.46 63.94-1.46L63.94-1.46Q64.06-1.46 64.11-1.37L64.11-1.37Q64.13-1.32 64.13-1.27L64.13-1.27 64.13-0.2Q64.13-0.15 64.09-0.07 64.06 0 63.94 0L63.94 0 50.51 0ZM92.4-0.54L92.4-1.25Q92.4-1.27 92.42-1.35 92.45-1.44 92.6-1.44L92.6-1.44 93.13-1.44Q94.16-1.51 95.23-1.53 96.31-1.54 97.18-1.79 98.06-2.05 98.63-2.7 99.19-3.34 99.19-4.71L99.19-4.71 99.19-29.71Q99.19-30.66 98.8-31.26 98.41-31.86 97.77-32.23 97.14-32.59 96.33-32.78 95.52-32.96 94.69-33.08L94.69-33.08 94.18-33.08Q94.06-33.08 94.02-33.15 93.99-33.23 93.99-33.28L93.99-33.28 93.99-34.23Q93.99-34.28 94.02-34.35 94.06-34.42 94.18-34.42L94.18-34.42 118.5-34.42Q118.94-34.42 119.13-34.27 119.33-34.11 119.38-33.57L119.38-33.57 119.82-25.76Q119.82-25.63 119.61-25.57 119.4-25.51 119.23-25.51L119.23-25.51Q119.04-25.51 118.84-25.56 118.64-25.61 118.57-25.71L118.57-25.71Q118.4-25.95 118.33-26.43 118.25-26.9 118.17-27.49 118.08-28.08 117.92-28.71 117.77-29.35 117.45-29.88 117.13-30.42 116.58-30.82 116.03-31.23 115.18-31.37L115.18-31.37 106.46-31.37Q106.14-31.37 106.14-31.05L106.14-31.05 106.14-19.41Q106.14-19.17 106.39-19.17L106.39-19.17 113.37-19.17Q113.98-19.17 114.58-19.32 115.18-19.48 115.63-19.9 116.08-20.31 116.36-21.06 116.64-21.8 116.64-22.97L116.64-22.97Q116.64-23.17 116.84-23.17L116.84-23.17 117.79-23.17Q117.99-23.17 117.99-22.97L117.99-22.97 117.99-11.79Q117.99-11.67 117.91-11.63 117.84-11.6 117.79-11.6L117.79-11.6 116.84-11.6Q116.72-11.6 116.68-11.67 116.64-11.74 116.64-11.79L116.64-11.79Q116.64-13.16 116.36-14 116.08-14.84 115.62-15.32 115.15-15.8 114.56-15.95 113.96-16.11 113.3-16.11L113.3-16.11 106.39-16.11Q106.14-16.11 106.14-15.87L106.14-15.87 106.14-5.2Q106.14-4.49 106.36-4.06 106.58-3.64 106.96-3.42 107.34-3.2 107.83-3.13 108.32-3.05 108.85-3.05L108.85-3.05 115.52-3.05Q116.94-3.05 117.89-3.7 118.84-4.35 119.43-5.27 120.01-6.2 120.29-7.2 120.57-8.2 120.65-8.91L120.65-8.91Q120.7-9.23 120.96-9.41 121.23-9.59 121.57-9.59L121.57-9.59Q121.7-9.59 121.87-9.5 122.04-9.4 122.04-9.28L122.04-9.28 121.23-0.34Q121.18-0.22 121.1-0.11 121.01 0 120.89 0L120.89 0 92.6 0Q92.45 0 92.42-0.09 92.4-0.17 92.4-0.2L92.4-0.2 92.4-0.54ZM126.75-16.99L126.75-16.99Q126.75-19.73 127.43-22.16 128.12-24.58 129.36-26.64 130.61-28.69 132.36-30.32 134.12-31.96 136.26-33.09 138.39-34.23 140.83-34.84 143.28-35.45 145.94-35.45L145.94-35.45Q148.18-35.45 150.27-35.05 152.36-34.64 154.58-34.11L154.58-34.11Q154.95-34.01 155.35-33.86 155.75-33.72 156.11-33.58 156.46-33.45 156.75-33.35 157.05-33.25 157.19-33.25L157.19-33.25Q157.24-33.25 157.52-33.35 157.8-33.45 157.92-33.45L157.92-33.45 159.05-33.45Q159.34-33.45 159.34-33.03L159.34-33.03 159.34-25.07Q159.34-24.93 159.23-24.88 159.12-24.83 158.75-24.83L158.75-24.83Q158.68-24.83 158.38-24.84 158.07-24.85 158-24.98L158-24.98Q157.95-25.05 157.81-25.27 157.68-25.49 157.52-25.72 157.36-25.95 157.23-26.16 157.09-26.37 157.07-26.44L157.07-26.44Q156.14-28.27 155.04-29.53 153.95-30.79 152.61-31.57 151.28-32.35 149.72-32.7 148.16-33.06 146.33-33.06L146.33-33.06Q144.01-33.06 142.21-32.52 140.42-31.98 139.08-31.01 137.73-30.03 136.82-28.66 135.9-27.29 135.33-25.67 134.76-24.05 134.5-22.2 134.24-20.36 134.24-18.41L134.24-18.41Q134.24-16.33 134.54-14.29 134.83-12.26 135.49-10.41 136.15-8.57 137.18-6.99 138.22-5.42 139.69-4.26 141.15-3.1 143.11-2.44 145.06-1.78 147.52-1.78L147.52-1.78Q149.6-1.78 151.39-2.4 153.19-3.03 154.68-4.09 156.17-5.15 157.33-6.53 158.49-7.91 159.32-9.42L159.32-9.42Q159.37-9.55 159.43-9.56 159.49-9.57 159.61-9.57L159.61-9.57 160.85-9.57Q160.93-9.57 161.01-9.51 161.1-9.45 161.1-9.25L161.1-9.25Q161.1-9.18 160.99-8.87 160.88-8.57 160.76-8.35L160.76-8.35 157.39-0.93Q157.34-0.85 157.24-0.81 157.14-0.76 157.07-0.76L157.07-0.76Q156.48-0.76 156.25-0.85 156.02-0.95 155.78-0.95L155.78-0.95Q155.04-0.95 153.84-0.7 152.63-0.44 151.22-0.15 149.82 0.15 148.39 0.4 146.96 0.66 145.84 0.66L145.84 0.66Q143.28 0.66 140.86 0.1 138.44-0.46 136.32-1.53 134.19-2.59 132.44-4.14 130.68-5.69 129.41-7.64 128.14-9.59 127.44-11.95 126.75-14.31 126.75-16.99ZM164.64 0L164.64 0Q164.51 0 164.48-0.07 164.44-0.15 164.44-0.2L164.44-0.2 164.44-1.51Q164.44-1.56 164.48-1.64 164.51-1.71 164.64-1.71L164.64-1.71Q165.39-1.71 166.16-1.82 166.93-1.93 167.57-2.29 168.2-2.66 168.6-3.34 169.01-4.03 169.01-5.2L169.01-5.2 169.01-29.66Q169.01-30.49 168.74-31.05 168.47-31.62 167.98-31.97 167.49-32.32 166.81-32.5 166.13-32.67 165.3-32.71L165.3-32.71Q165.1-32.71 165.1-32.91L165.1-32.91 165.1-34.23Q165.1-34.42 165.27-34.42L165.27-34.42 179.72-34.42Q179.85-34.42 179.88-34.35 179.92-34.28 179.92-34.23L179.92-34.23 179.92-32.91Q179.92-32.76 179.72-32.76L179.72-32.76Q178.99-32.76 178.31-32.63 177.62-32.5 177.11-32.13 176.6-31.76 176.28-31.09 175.96-30.42 175.96-29.32L175.96-29.32 175.96-19.26Q175.96-19.02 176.04-18.95 176.11-18.87 176.35-18.87L176.35-18.87 193.4-18.87Q193.64-18.87 193.71-18.95 193.79-19.02 193.79-19.26L193.79-19.26 193.79-29.71Q193.79-30.57 193.25-31.13 192.71-31.69 191.89-32.02 191.08-32.35 190.12-32.51 189.17-32.67 188.37-32.71L188.37-32.71Q188.17-32.71 188.17-32.91L188.17-32.91 188.17-34.23Q188.17-34.42 188.34-34.42L188.34-34.42 204.63-34.42Q204.75-34.42 204.78-34.35 204.82-34.28 204.82-34.23L204.82-34.23 204.82-32.91Q204.82-32.76 204.63-32.76L204.63-32.76Q203.89-32.76 203.2-32.63 202.5-32.5 201.95-32.13 201.4-31.76 201.07-31.09 200.74-30.42 200.74-29.32L200.74-29.32 200.74-5.15Q200.74-4.52 200.93-4.02 201.11-3.52 201.5-3.03L201.5-3.03Q201.89-2.49 202.78-2.12 203.67-1.76 205.31-1.71L205.31-1.71Q205.51-1.71 205.51-1.51L205.51-1.51 205.51-0.2Q205.51 0 205.31 0L205.31 0 187.59 0Q187.46 0 187.43-0.07 187.39-0.15 187.39-0.2L187.39-0.2 187.39-1.51Q187.39-1.56 187.43-1.64 187.46-1.71 187.59-1.71L187.59-1.71Q188.32-1.71 189.37-1.81 190.42-1.9 191.41-2.23 192.39-2.56 193.09-3.19 193.79-3.81 193.79-4.88L193.79-4.88 193.79-15.43Q193.79-15.67 193.71-15.75 193.64-15.82 193.4-15.82L193.4-15.82 176.35-15.82Q176.11-15.82 176.04-15.75 175.96-15.67 175.96-15.43L175.96-15.43 175.96-4.64Q175.96-3.81 176.33-3.25 176.7-2.69 177.29-2.34 177.89-2 178.67-1.86 179.46-1.71 180.29-1.71L180.29-1.71Q180.43-1.71 180.46-1.64 180.48-1.56 180.48-1.51L180.48-1.51 180.48-0.2Q180.48-0.15 180.46-0.07 180.43 0 180.31 0L180.31 0 164.64 0ZM228.99 0.63L228.99 0.63Q228.13 0.63 226.85 0.49 225.57 0.34 224.05-0.05 222.52-0.44 220.86-1.07 219.2-1.71 217.6-2.7 216-3.69 214.56-5.04 213.12-6.4 212.03-8.19 210.95-9.99 210.3-12.28 209.65-14.58 209.65-17.43L209.65-17.43Q209.65-19.97 210.35-22.29 211.04-24.61 212.34-26.61 213.63-28.61 215.48-30.25 217.32-31.88 219.59-33.03 221.86-34.18 224.52-34.81 227.18-35.45 230.11-35.45L230.11-35.45Q232.65-35.45 235.03-34.83 237.41-34.2 239.49-33.07 241.56-31.93 243.28-30.35 245-28.76 246.25-26.81 247.49-24.85 248.18-22.6 248.86-20.34 248.86-17.9L248.86-17.9Q248.86-15.6 248.2-13.34 247.54-11.08 246.3-9.02 245.05-6.96 243.28-5.2 241.51-3.44 239.32-2.14 237.12-0.83 234.51-0.1 231.89 0.63 228.99 0.63ZM216.83-18.33L216.83-18.33Q216.83-16.36 217.23-14.38 217.64-12.4 218.42-10.57 219.2-8.74 220.35-7.14 221.49-5.54 222.96-4.36 224.42-3.17 226.22-2.5 228.01-1.83 230.11-1.83L230.11-1.83Q233.07-1.83 235.24-3.09 237.41-4.35 238.84-6.42 240.27-8.5 240.96-11.19 241.66-13.89 241.66-16.77L241.66-16.77Q241.66-18.87 241.26-20.89 240.85-22.9 240.09-24.72 239.32-26.54 238.18-28.06 237.05-29.59 235.57-30.71 234.09-31.84 232.3-32.46 230.5-33.08 228.4-33.08L228.4-33.08Q226.52-33.08 224.94-32.5 223.35-31.91 222.07-30.9 220.79-29.88 219.81-28.48 218.83-27.08 218.17-25.44 217.51-23.8 217.17-21.98 216.83-20.17 216.83-18.33ZM270.78 0L253.99 0Q253.79 0 253.79-0.24L253.79-0.24 253.79-1.27Q253.79-1.29 253.82-1.38 253.84-1.46 253.99-1.46L253.99-1.46Q254.82-1.46 255.54-1.71 256.26-1.95 256.79-2.37 257.33-2.78 257.65-3.37 257.97-3.96 257.97-4.64L257.97-4.64 257.97-29.44Q257.97-30.66 257.72-31.36 257.48-32.06 257-32.41 256.53-32.76 255.81-32.85 255.09-32.93 254.13-32.93L254.13-32.93 253.03-32.93Q252.77-32.93 252.64-33.24 252.52-33.54 252.52-33.76L252.52-33.76Q252.52-33.89 252.57-34.13 252.62-34.38 252.84-34.42L252.84-34.42Q252.86-34.42 253-34.42 253.13-34.42 253.47-34.44 253.82-34.45 254.39-34.46 254.96-34.47 255.89-34.5L255.89-34.5Q257.23-34.52 258.76-34.57 260.29-34.62 261.85-34.67 263.41-34.72 264.94-34.75 266.46-34.79 267.8-34.79L267.8-34.79 271.25-34.79Q273.2-34.79 275.06-34.13 276.91-33.47 278.35-32.19 279.79-30.91 280.67-29 281.55-27.1 281.55-24.61L281.55-24.61Q281.55-23.05 281.09-21.62 280.62-20.19 279.83-18.99 279.04-17.8 278-16.83 276.96-15.87 275.82-15.21 274.69-14.55 273.52-14.21L273.52-14.21Q272.49-13.94 271.59-13.94L271.59-13.94Q271.44-13.94 271.32-13.94L271.32-13.94 265.49-14.23Q265.46-14.23 265.29-14.23 265.12-14.23 265.05-14.18L265.05-14.18Q264.97-14.14 264.95-14.09 264.92-14.04 264.92-13.89L264.92-13.89 264.92-4.71Q264.92-3.76 265.45-3.14 265.97-2.51 266.82-2.15 267.66-1.78 268.71-1.62 269.76-1.46 270.78-1.46L270.78-1.46Q270.93-1.46 270.95-1.39 270.98-1.32 270.98-1.27L270.98-1.27 270.98-0.2Q270.98-0.15 270.94-0.07 270.91 0 270.78 0L270.78 0ZM264.92-17.72L264.97-16.99Q265-16.8 265.08-16.64 265.17-16.48 265.44-16.46L265.44-16.46Q265.53-16.46 265.79-16.43 266.05-16.41 266.39-16.38 266.73-16.36 267.13-16.33 267.54-16.31 267.93-16.31L267.93-16.31Q269.56-16.31 270.8-16.97 272.03-17.63 272.85-18.81 273.66-20 274.07-21.62 274.47-23.24 274.47-25.2L274.47-25.2Q274.47-29.22 272.86-31.1 271.25-32.98 268.12-32.98L268.12-32.98Q267.78-32.98 267.49-32.97 267.19-32.96 266.9-32.95 266.61-32.93 266.28-32.92 265.95-32.91 265.53-32.89L265.53-32.89Q265.39-32.89 265.16-32.82 264.92-32.76 264.92-32.5L264.92-32.5 264.92-17.72Z" opacity="1" transform="matrix(1,0,0,1,0,0)" fill="#ffffff" class="undefined-text-0" data-fill-palette-color="primary" id="text-0"></path></svg></g></svg></g><g transform="matrix(1,0,0,1,163.31020799999996,63.166980074262256)"><svg viewBox="0 0 232.20979200000002 29.580735013997707" height="29.580735013997707" width="232.20979200000002"><g transform="matrix(1,0,0,1,0,0)"><svg width="232.20979200000002" viewBox="0.3800000250339508 -35.77000045776367 283.94000244140625 36.17000198364258" height="29.580735013997707" data-palette-color="#ff9966"><path d="M17.4-35.38L31.88 0 29.9 0Q29.55 0 29.33-0.19 29.1-0.38 28.98-0.68L28.98-0.68 24.8-10.95 7.43-10.95 3.28-0.68Q3.18-0.4 2.93-0.2 2.68 0 2.33 0L2.33 0 0.38 0 14.85-35.38 17.4-35.38ZM15.43-30.7L8.2-12.85 24.05-12.85 16.82-30.73Q16.65-31.15 16.48-31.69 16.3-32.23 16.13-32.83L16.13-32.83Q15.95-32.23 15.78-31.69 15.6-31.15 15.43-30.7L15.43-30.7ZM50.5-22.63L49.97-21.8Q49.8-21.45 49.42-21.45L49.42-21.45Q49.15-21.45 48.71-21.76 48.27-22.08 47.56-22.46 46.85-22.85 45.81-23.16 44.77-23.48 43.27-23.48L43.27-23.48Q41.92-23.48 40.81-23.09 39.7-22.7 38.91-22.05 38.12-21.4 37.69-20.54 37.25-19.68 37.25-18.73L37.25-18.73Q37.25-17.55 37.85-16.78 38.45-16 39.42-15.45 40.4-14.9 41.64-14.5 42.87-14.1 44.17-13.7 45.47-13.3 46.71-12.81 47.95-12.33 48.92-11.6 49.9-10.88 50.5-9.83 51.1-8.78 51.1-7.28L51.1-7.28Q51.1-5.65 50.51-4.25 49.92-2.85 48.81-1.83 47.7-0.8 46.07-0.2 44.45 0.4 42.37 0.4L42.37 0.4Q39.75 0.4 37.85-0.44 35.95-1.28 34.45-2.63L34.45-2.63 35.02-3.48Q35.15-3.68 35.3-3.78 35.45-3.88 35.72-3.88L35.72-3.88Q36.05-3.88 36.52-3.48 37-3.08 37.76-2.61 38.52-2.15 39.66-1.75 40.8-1.35 42.47-1.35L42.47-1.35Q44.05-1.35 45.25-1.79 46.45-2.23 47.25-2.98 48.05-3.73 48.46-4.74 48.87-5.75 48.87-6.88L48.87-6.88Q48.87-8.13 48.27-8.95 47.67-9.78 46.7-10.35 45.72-10.93 44.49-11.33 43.25-11.73 41.94-12.13 40.62-12.53 39.39-13 38.15-13.48 37.17-14.2 36.2-14.93 35.6-15.96 35-17 35-18.55L35-18.55Q35-19.88 35.57-21.1 36.15-22.33 37.21-23.25 38.27-24.18 39.8-24.73 41.32-25.28 43.22-25.28L43.22-25.28Q45.5-25.28 47.26-24.63 49.02-23.98 50.5-22.63L50.5-22.63ZM58.47-24.88L60.85-24.88 60.85 0 58.47 0 58.47-24.88ZM61.9-33.45L61.9-33.45Q61.9-33 61.71-32.61 61.52-32.23 61.22-31.93 60.92-31.63 60.52-31.45 60.12-31.28 59.67-31.28L59.67-31.28Q59.22-31.28 58.82-31.45 58.42-31.63 58.12-31.93 57.82-32.23 57.65-32.61 57.47-33 57.47-33.45L57.47-33.45Q57.47-33.9 57.65-34.31 57.82-34.73 58.12-35.02 58.42-35.33 58.82-35.5 59.22-35.68 59.67-35.68L59.67-35.68Q60.12-35.68 60.52-35.5 60.92-35.33 61.22-35.02 61.52-34.73 61.71-34.31 61.9-33.9 61.9-33.45ZM86.47 0L85.52 0Q84.77 0 84.59-0.7L84.59-0.7 84.24-3.88Q83.22-2.88 82.2-2.08 81.19-1.28 80.09-0.73 78.99-0.18 77.72 0.11 76.44 0.4 74.92 0.4L74.92 0.4Q73.64 0.4 72.44 0.03 71.24-0.35 70.32-1.13 69.39-1.9 68.83-3.11 68.27-4.33 68.27-6.03L68.27-6.03Q68.27-7.6 69.17-8.95 70.07-10.3 71.98-11.3 73.89-12.3 76.91-12.9 79.92-13.5 84.14-13.6L84.14-13.6 84.14-16.2Q84.14-19.65 82.66-21.51 81.17-23.38 78.24-23.38L78.24-23.38Q76.44-23.38 75.18-22.88 73.92-22.38 73.04-21.78 72.17-21.18 71.62-20.68 71.07-20.18 70.69-20.18L70.69-20.18Q70.19-20.18 69.94-20.63L69.94-20.63 69.52-21.35Q71.47-23.3 73.62-24.3 75.77-25.3 78.49-25.3L78.49-25.3Q80.49-25.3 81.99-24.66 83.49-24.03 84.48-22.84 85.47-21.65 85.97-19.96 86.47-18.28 86.47-16.2L86.47-16.2 86.47 0ZM75.52-1.33L75.52-1.33Q76.97-1.33 78.18-1.64 79.39-1.95 80.43-2.51 81.47-3.08 82.37-3.85 83.27-4.63 84.14-5.53L84.14-5.53 84.14-12Q80.59-11.9 78.03-11.46 75.47-11.03 73.81-10.28 72.14-9.53 71.36-8.49 70.57-7.45 70.57-6.13L70.57-6.13Q70.57-4.88 70.98-3.96 71.39-3.05 72.07-2.46 72.74-1.88 73.64-1.6 74.54-1.33 75.52-1.33ZM96.34 0L93.97 0 93.97-24.88 95.27-24.88Q95.92-24.88 96.02-24.25L96.02-24.25 96.24-20.5Q97.94-22.65 100.2-23.96 102.47-25.28 105.24-25.28L105.24-25.28Q107.29-25.28 108.85-24.63 110.42-23.98 111.44-22.75 112.47-21.53 112.99-19.8 113.52-18.07 113.52-15.9L113.52-15.9 113.52 0 111.14 0 111.14-15.9Q111.14-19.4 109.54-21.39 107.94-23.38 104.64-23.38L104.64-23.38Q102.19-23.38 100.09-22.11 97.99-20.85 96.34-18.65L96.34-18.65 96.34 0ZM157.56-5.95L157.56-5.95Q157.81-5.95 157.99-5.78L157.99-5.78 158.99-4.7Q157.89-3.53 156.59-2.59 155.29-1.65 153.75-0.99 152.21-0.33 150.37 0.04 148.54 0.4 146.34 0.4L146.34 0.4Q142.66 0.4 139.6-0.89 136.54-2.18 134.35-4.54 132.16-6.9 130.94-10.25 129.71-13.6 129.71-17.7L129.71-17.7Q129.71-21.73 130.97-25.05 132.24-28.38 134.52-30.76 136.81-33.15 140-34.46 143.19-35.77 147.04-35.77L147.04-35.77Q148.96-35.77 150.56-35.49 152.16-35.2 153.55-34.66 154.94-34.13 156.16-33.33 157.39-32.52 158.56-31.48L158.56-31.48 157.79-30.35Q157.59-30.05 157.16-30.05L157.16-30.05Q156.94-30.05 156.59-30.31 156.24-30.58 155.7-30.96 155.16-31.35 154.4-31.81 153.64-32.27 152.59-32.66 151.54-33.05 150.16-33.31 148.79-33.58 147.04-33.58L147.04-33.58Q143.81-33.58 141.11-32.46 138.41-31.35 136.46-29.29 134.51-27.23 133.42-24.29 132.34-21.35 132.34-17.7L132.34-17.7Q132.34-13.95 133.41-11 134.49-8.05 136.39-6.01 138.29-3.98 140.87-2.89 143.46-1.8 146.49-1.8L146.49-1.8Q148.39-1.8 149.87-2.05 151.36-2.3 152.61-2.8 153.86-3.3 154.94-4.03 156.01-4.75 157.06-5.73L157.06-5.73Q157.19-5.83 157.3-5.89 157.41-5.95 157.56-5.95ZM165.21-24.88L167.61-24.88 167.61-8.97Q167.61-5.48 169.21-3.49 170.81-1.5 174.08-1.5L174.08-1.5Q176.51-1.5 178.61-2.74 180.71-3.98 182.38-6.18L182.38-6.18 182.38-24.88 184.78-24.88 184.78 0 183.46 0Q182.76 0 182.73-0.65L182.73-0.65 182.51-4.35Q180.78-2.2 178.52-0.9 176.26 0.4 173.48 0.4L173.48 0.4Q171.41 0.4 169.86-0.25 168.31-0.9 167.28-2.13 166.26-3.35 165.73-5.08 165.21-6.8 165.21-8.97L165.21-8.97 165.21-24.88ZM193.58-24.88L195.96-24.88 195.96 0 193.58 0 193.58-24.88ZM197.01-33.45L197.01-33.45Q197.01-33 196.82-32.61 196.63-32.23 196.33-31.93 196.03-31.63 195.63-31.45 195.23-31.28 194.78-31.28L194.78-31.28Q194.33-31.28 193.93-31.45 193.53-31.63 193.23-31.93 192.93-32.23 192.76-32.61 192.58-33 192.58-33.45L192.58-33.45Q192.58-33.9 192.76-34.31 192.93-34.73 193.23-35.02 193.53-35.33 193.93-35.5 194.33-35.68 194.78-35.68L194.78-35.68Q195.23-35.68 195.63-35.5 196.03-35.33 196.33-35.02 196.63-34.73 196.82-34.31 197.01-33.9 197.01-33.45ZM218.98-22.63L218.45-21.8Q218.28-21.45 217.9-21.45L217.9-21.45Q217.63-21.45 217.19-21.76 216.75-22.08 216.04-22.46 215.33-22.85 214.29-23.16 213.25-23.48 211.75-23.48L211.75-23.48Q210.4-23.48 209.29-23.09 208.18-22.7 207.39-22.05 206.6-21.4 206.17-20.54 205.73-19.68 205.73-18.73L205.73-18.73Q205.73-17.55 206.33-16.78 206.93-16 207.9-15.45 208.88-14.9 210.12-14.5 211.35-14.1 212.65-13.7 213.95-13.3 215.19-12.81 216.43-12.33 217.4-11.6 218.38-10.88 218.98-9.83 219.58-8.78 219.58-7.28L219.58-7.28Q219.58-5.65 218.99-4.25 218.4-2.85 217.29-1.83 216.18-0.8 214.55-0.2 212.93 0.4 210.85 0.4L210.85 0.4Q208.23 0.4 206.33-0.44 204.43-1.28 202.93-2.63L202.93-2.63 203.5-3.48Q203.63-3.68 203.78-3.78 203.93-3.88 204.2-3.88L204.2-3.88Q204.53-3.88 205-3.48 205.48-3.08 206.24-2.61 207-2.15 208.14-1.75 209.28-1.35 210.95-1.35L210.95-1.35Q212.53-1.35 213.73-1.79 214.93-2.23 215.73-2.98 216.53-3.73 216.94-4.74 217.35-5.75 217.35-6.88L217.35-6.88Q217.35-8.13 216.75-8.95 216.15-9.78 215.18-10.35 214.2-10.93 212.97-11.33 211.73-11.73 210.42-12.13 209.1-12.53 207.87-13 206.63-13.48 205.65-14.2 204.68-14.93 204.08-15.96 203.48-17 203.48-18.55L203.48-18.55Q203.48-19.88 204.05-21.1 204.63-22.33 205.69-23.25 206.75-24.18 208.28-24.73 209.8-25.28 211.7-25.28L211.7-25.28Q213.98-25.28 215.74-24.63 217.5-23.98 218.98-22.63L218.98-22.63ZM226.95-24.88L229.33-24.88 229.33 0 226.95 0 226.95-24.88ZM230.38-33.45L230.38-33.45Q230.38-33 230.19-32.61 230-32.23 229.7-31.93 229.4-31.63 229-31.45 228.6-31.28 228.15-31.28L228.15-31.28Q227.7-31.28 227.3-31.45 226.9-31.63 226.6-31.93 226.3-32.23 226.13-32.61 225.95-33 225.95-33.45L225.95-33.45Q225.95-33.9 226.13-34.31 226.3-34.73 226.6-35.02 226.9-35.33 227.3-35.5 227.7-35.68 228.15-35.68L228.15-35.68Q228.6-35.68 229-35.5 229.4-35.33 229.7-35.02 230-34.73 230.19-34.31 230.38-33.9 230.38-33.45ZM240.5 0L238.12 0 238.12-24.88 239.42-24.88Q240.07-24.88 240.17-24.25L240.17-24.25 240.4-20.5Q242.1-22.65 244.36-23.96 246.62-25.28 249.4-25.28L249.4-25.28Q251.45-25.28 253.01-24.63 254.57-23.98 255.6-22.75 256.62-21.53 257.15-19.8 257.67-18.07 257.67-15.9L257.67-15.9 257.67 0 255.3 0 255.3-15.9Q255.3-19.4 253.7-21.39 252.1-23.38 248.8-23.38L248.8-23.38Q246.35-23.38 244.25-22.11 242.15-20.85 240.5-18.65L240.5-18.65 240.5 0ZM274.55-25.28L274.55-25.28Q276.65-25.28 278.43-24.55 280.22-23.83 281.53-22.44 282.85-21.05 283.58-19.03 284.32-17 284.32-14.38L284.32-14.38Q284.32-13.83 284.16-13.63 284-13.43 283.65-13.43L283.65-13.43 265.67-13.43 265.67-12.95Q265.67-10.15 266.32-8.03 266.97-5.9 268.17-4.46 269.37-3.03 271.07-2.3 272.77-1.58 274.87-1.58L274.87-1.58Q276.75-1.58 278.12-1.99 279.5-2.4 280.43-2.91 281.37-3.43 281.92-3.84 282.47-4.25 282.72-4.25L282.72-4.25Q283.05-4.25 283.22-4L283.22-4 283.87-3.2Q283.27-2.45 282.28-1.8 281.3-1.15 280.08-0.69 278.87-0.23 277.48 0.05 276.1 0.33 274.7 0.33L274.7 0.33Q272.15 0.33 270.05-0.56 267.95-1.45 266.45-3.15 264.95-4.85 264.13-7.31 263.32-9.78 263.32-12.95L263.32-12.95Q263.32-15.63 264.08-17.89 264.85-20.15 266.28-21.79 267.72-23.43 269.81-24.35 271.9-25.28 274.55-25.28ZM274.57-23.5L274.57-23.5Q272.65-23.5 271.12-22.9 269.6-22.3 268.48-21.18 267.37-20.05 266.68-18.48 266-16.9 265.77-14.95L265.77-14.95 282.17-14.95Q282.17-16.95 281.62-18.54 281.07-20.13 280.07-21.23 279.07-22.33 277.67-22.91 276.27-23.5 274.57-23.5Z" opacity="1" transform="matrix(1,0,0,1,0,0)" fill="#ff9966" class="undefined-text-1" data-fill-palette-color="secondary" id="text-1"></path></svg></g></svg></g></svg></g></svg></g><g transform="matrix(1,0,0,1,407.58415138552283,0)"><svg viewBox="0 0 213.06886213368415 213.06886213368415" height="213.06886213368415" width="213.06886213368415"><g><svg></svg></g><g id="icon-0"><svg viewBox="0 0 213.06886213368415 213.06886213368415" height="213.06886213368415" width="213.06886213368415"><g><rect width="193.7348357548869" height="193.7348357548869" x="9.66701318939863" y="9.66701318939863" fill="#ff9966" data-fill-palette-color="accent"></rect><rect width="193.7348357548869" height="193.7348357548869" x="-1.7763568394002505e-15" y="-1.7763568394002505e-15" fill="#ff9966" opacity="0.5" data-fill-palette-color="accent"></rect></g><g transform="matrix(1,0,0,1,27.620037683996088,42.01052981392431)"><svg viewBox="0 0 157.82878676569197 129.04780250583553" height="129.04780250583553" width="157.82878676569197"><g><svg xmlns="http://www.w3.org/2000/svg" xmlns:xlink="http://www.w3.org/1999/xlink" version="1.1" x="0" y="0" viewBox="11 26.623750686645508 78 63.77625274658203" style="enable-background:new 0 0 100 100;" xml:space="preserve" height="129.04780250583553" width="157.82878676569197" class="icon-x-0" data-fill-palette-color="background" id="x-0"><path d="M86.9 90.4H13.1c-1.2 0-2.1-0.9-2.1-2.1v0c0-1.2 0.9-2.1 2.1-2.1h73.8c1.2 0 2.1 0.9 2.1 2.1v0C89 89.4 88.1 90.4 86.9 90.4z" fill="#ffffff" data-fill-palette-color="background"></path><path d="M36 85.8H18c-0.3 0-0.5-0.2-0.5-0.5V70.9c0-0.3 0.2-0.5 0.5-0.5H36c0.3 0 0.5 0.2 0.5 0.5v14.3C36.5 85.6 36.2 85.8 36 85.8zM18.5 84.8h16.9V71.4H18.5V84.8z" fill="#ffffff" data-fill-palette-color="background"></path><path d="M84.5 85.8h-3c-0.3 0-0.5-0.2-0.5-0.5V70.9c0-0.3 0.2-0.5 0.5-0.5h3c0.3 0 0.5 0.2 0.5 0.5v14.3C85 85.6 84.7 85.8 84.5 85.8zM82 84.8h2V71.4h-2V84.8z" fill="#ffffff" data-fill-palette-color="background"></path><path d="M76.6 86c-0.1 0-0.2 0-0.2-0.1-0.1-0.1-0.2-0.2-0.3-0.3l-4.6-13.6c0-0.1 0-0.3 0-0.4 0.1-0.1 0.2-0.2 0.3-0.3l2.8-1c0.3-0.1 0.5 0.1 0.6 0.3l4.6 13.6c0.1 0.3-0.1 0.5-0.3 0.6l-2.8 1C76.7 86 76.6 86 76.6 86zM72.6 72.2l4.3 12.6 1.9-0.6-4.3-12.6L72.6 72.2z" fill="#ffffff" data-fill-palette-color="background"></path><g fill="#ffffff" data-fill-palette-color="background"><path d="M32.1 59.5c-0.8 0.8 2.8 3.5 2.8 3.5s9.6 9.7 23.1 15.9c0 0 1.1 0.7 1.3-0.3 0.2-1.1-1.5-1.4-1.5-1.4s-10.5-4.2-22.5-15.4C34.9 61.5 32.6 58.9 32.1 59.5z" fill="#ffffff" data-fill-palette-color="background"></path><path d="M37.5 46l-0.3-0.4L19.7 27.8c-1.5-1.5-4-1.6-5.5-0.1-1.5 1.5-1.6 4-0.1 5.5l17.4 17.9-6.3 6.2 0.4 0.4c22.3 21.7 36.6 28.8 43.7 21.8l0.4-0.3L37.5 46zM14.8 32.5c-1.1-1.1-1.1-3 0.1-4.1 1.1-1.1 3-1.1 4.1 0.1l3.4 3.5-2.2 2.8c-0.2 0.2-0.1 0.6 0.1 0.8 0.2 0.2 0.6 0.1 0.8-0.1l2.1-2.6 1.3 1.3-1.7 2.1c-0.2 0.2-0.1 0.6 0.1 0.8 0.2 0.2 0.6 0.1 0.8-0.1l1.6-2 0.8 0.8c0 0-0.1 0.1-0.1 0.1l-2.3 2.9c-0.2 0.2-0.1 0.6 0.1 0.8 0.2 0.2 0.6 0.1 0.8-0.1l2.3-2.9 1.3 1.3c0 0 0 0 0 0l-1.9 2.4c-0.2 0.2-0.1 0.6 0.1 0.8 0.2 0.2 0.6 0.1 0.8-0.1l1.8-2.3 7.5 7.8-4.2 4.1L14.8 32.5zM26.6 57.3l1-0.9 1.2 1.2c0.3 0.3 0.8 0.3 1.1 0 0.3-0.3 0.3-0.8 0-1.1l-1.2-1.2 3.6-3.5 0.7-0.7 4.1-4 0 0 1.5 1.5 29.6 30.5C61.5 84.8 47.5 77.5 26.6 57.3z" fill="#ffffff" data-fill-palette-color="background"></path></g></svg></g></svg></g></svg></g></svg></g></svg></g></svg><rect width="395.52" height="135.78117646327485" fill="none" stroke="none" visibility="hidden"></rect></g></svg></g></svg>